<mxfile host="app.diagrams.net" agent="Mozilla/5.0 (Windows NT 10.0; Win64; x64) AppleWebKit/537.36 (KHTML, like Gecko) Chrome/131.0.0.0 Safari/537.36" version="25.0.3">
  <diagram name="Page-1" id="heqzjo1ngZ2rzs1yOHM3">
    <mxGraphModel dx="1235" dy="614" grid="1" gridSize="10" guides="1" tooltips="1" connect="1" arrows="1" fold="1" page="1" pageScale="1" pageWidth="827" pageHeight="1169" math="0" shadow="0">
      <root>
        <mxCell id="0" />
        <mxCell id="1" parent="0" />
        <mxCell id="C_F6K7PvTIQdJkgAlZbM-1" value="" style="edgeStyle=orthogonalEdgeStyle;rounded=0;orthogonalLoop=1;jettySize=auto;html=1;" edge="1" parent="1" source="C_F6K7PvTIQdJkgAlZbM-2" target="C_F6K7PvTIQdJkgAlZbM-4">
          <mxGeometry relative="1" as="geometry" />
        </mxCell>
        <mxCell id="C_F6K7PvTIQdJkgAlZbM-2" value="เริ่มต้น" style="ellipse;whiteSpace=wrap;html=1;" vertex="1" parent="1">
          <mxGeometry x="359" y="30" width="110" height="40" as="geometry" />
        </mxCell>
        <mxCell id="C_F6K7PvTIQdJkgAlZbM-16" value="" style="edgeStyle=orthogonalEdgeStyle;rounded=0;orthogonalLoop=1;jettySize=auto;html=1;" edge="1" parent="1" source="C_F6K7PvTIQdJkgAlZbM-4" target="C_F6K7PvTIQdJkgAlZbM-10">
          <mxGeometry relative="1" as="geometry" />
        </mxCell>
        <mxCell id="C_F6K7PvTIQdJkgAlZbM-4" value="รับค่า c" style="shape=parallelogram;perimeter=parallelogramPerimeter;whiteSpace=wrap;html=1;fixedSize=1;" vertex="1" parent="1">
          <mxGeometry x="354" y="110" width="120" height="40" as="geometry" />
        </mxCell>
        <mxCell id="C_F6K7PvTIQdJkgAlZbM-9" value="" style="edgeStyle=orthogonalEdgeStyle;rounded=0;orthogonalLoop=1;jettySize=auto;html=1;" edge="1" parent="1" source="C_F6K7PvTIQdJkgAlZbM-10" target="C_F6K7PvTIQdJkgAlZbM-12">
          <mxGeometry relative="1" as="geometry" />
        </mxCell>
        <mxCell id="C_F6K7PvTIQdJkgAlZbM-10" value="คำนวณ ( c * 9 / 5 ) + 32" style="rounded=0;whiteSpace=wrap;html=1;" vertex="1" parent="1">
          <mxGeometry x="340" y="210" width="146" height="30" as="geometry" />
        </mxCell>
        <mxCell id="C_F6K7PvTIQdJkgAlZbM-11" value="" style="edgeStyle=orthogonalEdgeStyle;rounded=0;orthogonalLoop=1;jettySize=auto;html=1;" edge="1" parent="1" source="C_F6K7PvTIQdJkgAlZbM-12">
          <mxGeometry relative="1" as="geometry">
            <mxPoint x="414" y="360" as="targetPoint" />
          </mxGeometry>
        </mxCell>
        <mxCell id="C_F6K7PvTIQdJkgAlZbM-12" value="แสดง ( c * 9 / 5 ) + 32" style="shape=parallelogram;perimeter=parallelogramPerimeter;whiteSpace=wrap;html=1;fixedSize=1;" vertex="1" parent="1">
          <mxGeometry x="321" y="280" width="186" height="40" as="geometry" />
        </mxCell>
        <mxCell id="C_F6K7PvTIQdJkgAlZbM-15" value="จบ" style="ellipse;whiteSpace=wrap;html=1;" vertex="1" parent="1">
          <mxGeometry x="359" y="360" width="110" height="40" as="geometry" />
        </mxCell>
      </root>
    </mxGraphModel>
  </diagram>
</mxfile>
